<svg width="111" height="94" viewBox="0 0 111 94" fill="none" xmlns="http://www.w3.org/2000/svg">
<g clip-path="url(#clip0_81_44)">
<path d="M45.5354 19.8419C47.0556 20.1724 48.2129 21.5821 47.9971 23.1264C47.9799 23.2533 47.9517 23.377 47.9126 23.5008C48.4381 23.3081 48.8979 22.9776 49.4171 22.7552C58.0954 19.0415 66.5343 26.1055 63.9726 35.2841C62.1225 41.9142 54.5499 44.5362 48.3192 44.6834L48.2801 55.9827L42.3825 56.5826C42.1683 56.6656 41.9368 56.52 41.929 56.2913C41.7961 52.7123 40.7592 38.6923 41.7773 23.1562C41.8133 22.6142 41.9321 19.668 42.0416 19.0838L45.5354 19.8435V19.8419ZM47.7687 34.1548C47.653 35.306 47.7687 36.8065 47.7687 38C47.7687 38.1754 47.9064 38.3383 48.0815 38.3477C49.8237 38.4495 53.915 37.3234 55.2396 36.5105C59.7719 33.7272 58.1642 27.5074 53.1784 28.1605C50.4884 28.5129 48.0252 31.6283 47.7703 34.1548H47.7687Z" fill="#FECC02"/>
<path d="M70.0063 13.7177C73.8387 13.7177 76.9455 10.6469 76.9455 6.85883C76.9455 3.0708 73.8387 0 70.0063 0C66.1739 0 63.0671 3.0708 63.0671 6.85883C63.0671 10.6469 66.1739 13.7177 70.0063 13.7177Z" fill="#FECC02"/>
<path d="M99.502 33.3058L90.5939 35.2183L92.0217 36.5246C91.526 37.0837 90.9113 37.8497 90.719 38.0392C90.3624 38.39 88.8563 39.8342 88.4044 39.452C88.0775 36.6373 88.5748 33.7694 88.3981 30.9188C87.9274 23.2862 82.9353 19.9594 77.6367 22.6769C75.4925 24.0224 66.1903 31.1318 66.1136 53.32L72.9105 53.118C73.2405 48.4739 74.6308 35.7258 77.9479 32.258C79.063 31.0911 81.2306 29.3509 81.9125 31.3198C83.4874 35.8714 79.9998 41.6088 84.4461 44.9889C87.4785 47.2945 91.4384 45.9709 93.9876 43.6356C94.4552 43.208 96.3554 41.1561 96.5149 40.6878C96.5196 40.6753 96.5243 40.6627 96.529 40.6518L98.3994 42.3637L99.5004 33.3058H99.502Z" fill="#FECC02"/>
<path d="M72.6806 17.9435L66.3138 16.7704L65.9713 46.0774C66.3686 39.358 67.8152 29.4762 72.6384 23.1593L72.6806 17.9435Z" fill="#FECC02"/>
<path d="M110.551 69.16C108.43 61.5212 100.382 61.565 94.5334 59.2876C91.0239 57.9218 91.8246 55.126 95.0651 54.7955C97.6722 54.5292 99.5989 55.3249 101.587 56.9116L106.544 51.6472C106.68 50.8688 101.859 48.4958 101.006 48.2311C93.57 45.9193 83.1526 49.9619 85.0106 59.0684C86.6496 67.1035 96.1598 66.0306 101.482 69.0958C105.134 71.1994 103.57 74.332 100.156 75.4409C97.3078 76.3666 94.3707 76.0549 91.6385 74.9115L88.6358 72.9755C88.0837 72.6075 87.3393 72.7453 86.9561 73.2872L83.6171 76.6329C86.4103 70.5901 85.7706 62.6975 80.0029 59.2453C77.363 57.665 74.6495 57.4551 72.1645 58.1677C67.7526 60.2744 68.4923 65.3116 68.4923 65.3116L71.1995 66.6101L71.1948 66.6195L73.547 67.553C73.5219 65.5638 74.4556 63.3929 76.7327 64.8433C81.1258 67.6407 77.6867 78.9792 71.8751 77.9078C70.5864 77.6697 69.4072 75.9969 69.1101 74.8019C68.4532 72.1548 68.8943 69.7208 70.1939 67.4825L66.4764 65.9491L66.3842 65.556C65.9885 61.6731 70.2627 58.9932 70.8992 58.6157C66.3419 60.5516 62.7996 65.5607 62.3617 70.6324C62.2663 71.7303 62.4665 72.9677 62.3649 74.0516C62.2632 75.1198 60.4053 77.842 59.6264 78.6878C59.1807 79.1734 57.9999 80.345 57.3087 79.9221C56.3953 79.3645 57.0334 75.4832 57.2133 74.4949C57.756 71.522 58.8398 68.8875 60.5616 66.4143L57.2414 61.9535C54.6437 63.7532 51.4689 65.1174 48.3239 65.4839C47.2667 62.439 43.1801 61.7091 40.8843 64.3813C40.0914 65.3038 39.8161 66.5803 40.0804 67.7676C40.8608 71.2745 42.1213 69.951 42.0244 71.5815C41.8821 73.967 40.9546 76.3697 40.2509 78.6205C40.0804 78.6597 40.0804 78.4795 40.046 78.3527C39.9193 77.8765 39.8974 77.3878 39.7426 76.8788C38.5008 72.7892 35.5481 70.1468 31.6571 68.5789C38.8199 62.887 36.119 53.0882 28.3822 49.586C28.4448 49.4419 30.5373 48.9641 30.908 48.8357C40.3009 45.5794 41.4692 34.2268 33.6917 28.2796C29.4973 25.0718 24.3457 24.959 20.3733 22.4874C16.1961 19.8889 18.6655 15.0851 22.4361 13.7913C26.507 12.3941 30.9908 14.4601 33.9138 17.3985C34.2939 17.7791 35.6748 19.8043 35.8203 19.8638C36.0502 19.9578 36.0189 19.7808 36.0533 19.69C39.1983 11.4732 28.5699 6.03966 21.9388 7.46657C20.8769 7.69525 19.3224 8.19803 18.4778 8.64756C15.7738 10.0823 14.385 11.4732 12.9274 14.3285C10.3626 19.5976 11.8311 25.1752 16.9186 28.1339C20.9176 30.4599 29.5567 31.5234 31.7102 35.7305C33.4978 39.2233 30.9111 42.807 27.228 43.0984C24.6913 43.3004 22.7614 42.3685 21.3508 40.7802C19.3051 38.4762 16.2805 37.2968 13.2215 37.6492L12.8743 37.6899C12.635 37.7181 12.4676 37.9484 12.5302 38.1802C13.4545 41.6166 16.0522 45.5042 18.9673 47.4652C13.32 47.3853 10.7348 49.0252 6.0133 52.2048C4.318 53.3467 1.3825 56.3681 0.0938188 58.2413C-0.236171 58.7222 0.326844 59.3158 0.83043 59.0229C3.47504 57.4895 8.11991 54.9443 11.3823 53.9544C22.5362 50.5727 29.2267 56.2913 29.2126 60.3778C29.2064 62.3545 27.9365 64.7039 25.9487 65.8771C24.0188 67.174 19.5006 67.2632 17.1063 66.0494C15.6221 65.2302 15.0904 64.5927 14.7494 63.6733C14.421 62.7883 13.2043 62.6066 12.6678 63.3835C11.2728 65.404 10.0576 71.3826 14.4554 83.2567C14.6102 83.6749 15.1717 83.6906 15.2655 83.2536C15.5423 81.9724 15.8285 78.2728 15.9834 76.2006C16.1304 74.2176 17.7475 72.7657 19.7258 72.5981C23.0382 72.3161 26.9981 72.5542 29.111 74.0093C34.4299 77.6682 35.0633 83.382 30.2276 87.337C26.8151 90.1281 21.1662 90.8533 14.4617 88.2799C13.8705 88.0528 13.37 88.7592 13.7907 89.2322C15.8473 91.5487 20.55 95.1246 29.2721 93.6538C35.287 92.6404 40.2978 86.9485 40.254 80.3967L45.2992 82.8558C46.713 79.4412 48.0565 75.8936 48.1847 72.1485C48.302 71.7867 48.9635 71.9637 49.3092 71.9073C50.0223 71.7914 50.7276 71.6223 51.4408 71.5158C50.2006 75.9985 49.2529 83.9898 54.5812 86.2014C59.0728 88.0653 63.0358 84.7244 65.5615 81.3553C68.4173 84.3719 72.4366 85.2475 76.3433 83.8143C78.9722 82.8495 81.1164 80.8822 82.6397 78.4388C85.4047 80.2197 88.5591 81.8236 91.784 82.6114C100.511 84.7416 113.58 80.0912 110.545 69.1569L110.551 69.16Z" fill="#FECC02"/>
</g>
<defs>
<clipPath id="clip0_81_44">
<rect width="111" height="94" fill="white"/>
</clipPath>
</defs>
</svg>
